<?xml version="1.0" encoding="utf-8"?>
<!-- Generator: Adobe Illustrator 16.0.0, SVG Export Plug-In . SVG Version: 6.00 Build 0)  -->
<!DOCTYPE svg PUBLIC "-//W3C//DTD SVG 1.1//EN" "http://www.w3.org/Graphics/SVG/1.1/DTD/svg11.dtd">
<svg version="1.1" id="Layer_1" xmlns="http://www.w3.org/2000/svg" xmlns:xlink="http://www.w3.org/1999/xlink" x="0px" y="0px"
	 width="974px" height="178px" viewBox="0 0 974 178" enable-background="new 0 0 974 178" xml:space="preserve">
<g>
	<path display="none" fill-rule="evenodd" clip-rule="evenodd" fill="#FEFDFD" d="M485.5,244c-173,0-346-0.014-519,0.094
		c-3.749,0.002-4.6-0.844-4.595-4.594c0.121-94.166,0.119-188.333-0.001-282.5c-0.004-3.424,0.672-4.095,4.096-4.094
		c346.333,0.101,692.666,0.101,1039,0c3.422-0.001,4.101,0.669,4.096,4.094c-0.119,94.333-0.119,188.666,0,282.999
		c0.004,3.424-0.671,4.098-4.096,4.096C831.834,243.987,658.667,244,485.5,244z M92.007,170.883c23.659,0,47.317,0.002,70.976-0.003
		c1.332,0,2.703,0.15,3.987-0.109c2.907-0.59,3.224-2.901,3.335-5.368c0.106-2.339-1.19-2.813-3.121-2.702
		c-2.644,0.151-3.416-1.237-3.336-3.71c0.135-4.161,0.152-8.334-0.004-12.493c-0.108-2.884,0.208-4.884,3.911-4.483
		c2.818,0.305,2.537-1.965,2.537-3.787c0.006-30.156-0.01-60.313,0.031-90.469c0.003-2.342-0.395-4.016-3.234-3.634
		c-2.83,0.381-3.309-1.144-3.24-3.545c0.128-4.495,0.125-8.998,0.001-13.493c-0.067-2.433,0.623-3.83,3.293-3.796
		c1.774,0.021,3.836,0.411,3.756-2.547c-0.069-2.569-0.847-4.655-3.448-5.425c-1.236-0.365-2.643-0.195-3.973-0.195
		c-47.483-0.008-94.967-0.007-142.451-0.001c-1.33,0-2.728-0.169-3.975,0.174c-2.218,0.61-3.112,2.332-2.927,4.598
		c0.113,1.39-0.47,3.494,1.85,3.301c5.353-0.448,4.803,3.077,4.742,6.469c-0.065,3.665-0.028,7.331-0.018,10.996
		c0.005,1.829-0.287,3.548-2.655,3.214c-4.183-0.589-3.97,2.004-3.96,4.871c0.064,17.66,0.032,35.321,0.032,52.981
		c0,12.162-0.03,24.325,0.031,36.487c0.007,1.457-0.791,4.022,1.827,3.752c5.013-0.52,4.845,2.465,4.734,5.865
		c-0.12,3.661-0.098,7.333,0.021,10.994c0.078,2.39-0.568,3.95-3.26,3.832c-2.088-0.092-3.48,0.268-3.423,2.93
		c0.057,2.638,0.687,4.65,3.496,5.197c1.288,0.251,2.656,0.108,3.988,0.108C45.023,170.896,68.516,170.895,92.007,170.883z
		 M553.207,34.324c2.063,1.229,2.322,2.939,2.906,4.369c5.965,14.591,11.996,29.155,17.754,43.828
		c1.263,3.219,2.691,4.681,6.381,4.632c3.549-0.047,5.264-1.122,6.534-4.479c5.577-14.736,11.403-29.381,17.274-44.005
		c0.588-1.464,0.419-3.761,2.914-4.191c0,13.6-0.113,27.08,0.076,40.557c0.051,3.567-0.844,5.283-4.642,5.146
		c-3.773-0.137-3.388,2.69-3.442,5.245c-0.072,3.311,2.273,2.644,4.151,2.654c6.661,0.038,13.323-0.012,19.985,0.024
		c2.114,0.012,3.982,0.143,3.832-2.981c-0.119-2.465,0.053-5.021-3.285-4.893c-4.314,0.165-4.692-2.185-4.657-5.657
		c0.14-13.821,0.15-27.646-0.005-41.468c-0.042-3.714,0.155-6.516,4.907-6.573c3.377-0.04,2.938-2.732,3.017-5.072
		c0.11-3.259-2.143-2.743-4.071-2.751c-5.996-0.025-12.001,0.193-17.983-0.09c-3.386-0.16-4.987,0.974-6.171,4.174
		c-5.064,13.689-10.384,27.286-15.699,40.881c-0.565,1.448-0.578,3.359-2.693,4.236c-0.798-1.829-1.634-3.611-2.36-5.438
		c-5.275-13.259-10.615-26.493-15.718-39.817c-1.12-2.926-2.519-4.15-5.758-4.038c-5.983,0.207-11.983-0.131-17.977-0.114
		c-1.787,0.005-4.271-0.884-4.341,2.462c-0.059,2.719-0.392,5.68,3.499,5.716c3.976,0.038,4.4,2.182,4.366,5.493
		c-0.145,14.155-0.156,28.313,0.005,42.467c0.04,3.568-0.524,5.714-4.735,5.606c-3.4-0.087-3.035,2.618-3.15,5.009
		c-0.156,3.244,1.988,2.833,3.974,2.834c6.495,0.002,12.991,0.034,19.485-0.019c2.007-0.016,4.464,0.793,4.509-2.852
		c0.039-3.133-0.497-5.335-4.204-5.11c-3.343,0.202-4.14-1.428-4.062-4.552c0.218-8.653,0.027-17.307-0.557-25.958
		C552.937,44.713,553.207,39.786,553.207,34.324z M284.692,34.755c0.099,1.979,0.244,3.548,0.244,5.116
		c-0.001,11.494-0.152,22.991,0.019,34.482c0.056,3.755-0.493,6.068-4.995,5.856c-3.516-0.166-2.925,2.682-3.09,4.996
		c-0.228,3.189,1.829,2.899,3.872,2.893c6.497-0.021,12.994,0.011,19.491-0.02c1.899-0.009,4.19,0.609,4.086-2.702
		c-0.08-2.563,0.323-5.359-3.458-5.231c-3.892,0.132-4.039-2.146-4.017-5.138c0.101-14.16,0.104-28.321,0.001-42.48
		c-0.024-3.285-0.01-5.898,4.426-5.895c3.352,0.003,2.964-2.743,3.045-5.109c0.11-3.212-2.063-2.817-4.044-2.82
		c-6.164-0.01-12.331,0.114-18.49-0.058c-2.798-0.077-4.09,0.978-5.061,3.589c-4.449,11.977-9.064,23.893-13.755,35.777
		c-1.319,3.343-2.124,6.952-4.378,10c-1.648-1.368-1.943-3.271-2.606-4.929c-5.423-13.557-10.843-27.115-16.1-40.736
		c-1.051-2.724-2.417-3.851-5.442-3.723c-5.987,0.253-11.992,0.053-17.989,0.087c-2.06,0.012-4.424-0.66-4.416,2.95
		c0.006,2.837,0.391,5.148,3.676,5.122c3.846-0.029,4.169,2.099,4.147,5.151c-0.097,13.993-0.127,27.988,0.014,41.98
		c0.038,3.744-0.093,6.55-5.052,6.352c-3.212-0.129-2.578,2.674-2.736,4.787c-0.188,2.497,0.973,3.104,3.244,3.07
		c6.662-0.099,13.328,0.033,19.989-0.075c1.868-0.031,4.554,1.145,4.625-2.636c0.057-3.009-0.213-5.45-3.997-5.281
		c-3.513,0.157-4.398-1.479-4.409-4.825c-0.04-11.821-0.431-23.641-0.603-35.463c-0.026-1.788-0.56-3.755,0.941-6.105
		c6.756,16.637,13.35,32.571,19.647,48.622c1.329,3.386,2.839,4.738,6.684,4.837c4.167,0.107,5.337-1.964,6.563-5.127
		c5.578-14.394,11.302-28.731,16.988-43.083C282.321,37.564,282.403,35.795,284.692,34.755z M777.102,117.152
		c2.286,0.941,2.752,2.455,3.541,3.67c8.503,13.098,17.2,26.078,25.354,39.391c2.854,4.66,5.919,6.706,11.475,6.266
		c3.66-0.29,4.766-1.071,4.718-4.817c-0.208-16.48-0.047-32.965-0.141-49.447c-0.021-3.979-0.484-7.669,5.408-7.63
		c3.18,0.021,2.255-2.995,2.431-5.026c0.208-2.398-1.214-2.668-3.109-2.655c-7.159,0.046-14.32,0.113-21.477-0.03
		c-2.719-0.056-3.243,1.082-3.389,3.541c-0.206,3.474,1.629,4.229,4.46,4.5c1.819,0.173,4.523-0.458,4.549,2.542
		c0.106,12.56,0.045,25.121,0.045,37.847c-2.751-0.477-3.127-2.574-4.03-3.987c-6.622-10.355-13.137-20.781-19.643-31.212
		c-8.438-13.531-8.421-13.55-24.49-13.173c-1.86,0.043-4.221-0.695-4.122,2.653c0.074,2.547-0.365,5.299,3.424,5.28
		c3.38-0.017,3.978,1.788,3.949,4.789c-0.131,13.984-0.152,27.972,0.005,41.956c0.042,3.785,0.158,6.838-4.941,7.062
		c-3.184,0.14-2.294,3.045-2.39,5.086c-0.137,2.896,1.979,2.524,3.771,2.53c6.493,0.024,12.996-0.197,19.476,0.106
		c3.865,0.183,4.308-1.597,4.182-4.748c-0.146-3.637-2.984-3.104-5.012-3.441c-2.318-0.386-4.123-0.524-4.092-3.66
		C777.173,142.263,777.102,129.979,777.102,117.152z M296.888,96.91c-6.53,0-11.862-0.045-17.192,0.025
		c-1.813,0.023-4.247-0.848-4.246,2.526c0.001,2.579-0.31,5.387,3.362,5.353c4.048-0.038,4.384,2.188,4.353,5.461
		c-0.135,14.326-0.152,28.654,0.004,42.979c0.035,3.184-0.497,5.039-4.128,5.046c-3.382,0.006-3.677,2.311-3.672,5.127
		c0.005,3.426,2.148,3.119,4.355,3.114c6.164-0.017,12.331,0.1,18.489-0.076c1.79-0.052,4.661,1.428,4.886-2.339
		c0.18-3.021,0.155-5.937-3.917-5.947c-3.109-0.009-3.401-1.724-3.326-4.192c0.127-4.161,0.14-8.332-0.003-12.492
		c-0.084-2.448,0.521-3.456,3.272-3.562c10.123-0.387,10.124-0.509,13.935,8.797c1.321,3.225,2.613,6.461,3.908,9.696
		c4.119,10.287,4.118,10.288,15.06,10.106c0.333-0.006,0.667-0.002,1-0.002c1.702,0,3.595,0.129,3.455-2.374
		c-0.119-2.128,1.181-5.289-2.251-5.67c-3.394-0.378-4.264-2.604-5.331-5.071c-1.911-4.416-3.793-8.851-5.914-13.166
		c-1.437-2.924-1.553-4.705,1.747-6.789c7.885-4.979,9.695-12.911,7.98-21.447c-1.558-7.751-7.177-12.003-14.653-14.024
		C310.667,95.99,303.138,97.4,296.888,96.91z M715.466,18.702c-4.999,0-9.998-0.035-14.997,0.017
		c-2.035,0.021-4.465-0.712-4.536,2.88c-0.058,2.856,0.399,5.186,3.676,5.154c4.174-0.04,4.31,2.367,4.287,5.535
		c-0.1,13.996-0.145,27.995,0.026,41.99c0.043,3.549-0.576,5.843-4.648,5.842c-3.455-0.001-3.197,2.468-3.324,4.899
		c-0.156,2.997,1.576,3.104,3.791,3.09c9.497-0.066,18.997,0.055,28.492-0.111c5.6-0.099,10.805-1.836,15.342-5.178
		c13.104-9.651,14.999-23.253,12.819-37.978c-2.052-13.859-13.572-26.929-31.431-26.155
		C721.803,18.824,718.632,18.707,715.466,18.702z M317.759,49.666c0.034,0,0.068,0,0.103,0c0,5.831-0.039,11.661,0.011,17.491
		c0.053,6.176,2.645,11.176,7.115,15.357c6.651,6.223,14.783,6.909,23.282,6.584c13.977-0.536,23.636-10.224,23.783-24.172
		c0.111-10.495,0.152-20.994-0.02-31.486c-0.063-3.858,0.039-6.875,5.101-6.958c3.548-0.059,2.638-3.037,2.757-5.237
		c0.158-2.931-1.921-2.564-3.728-2.565c-6.331-0.005-12.664-0.084-18.991,0.08c-1.98,0.052-4.859-1.36-5.229,2.634
		c-0.328,3.541,0.87,5.412,4.462,5.475c2.53,0.045,3.473,1.225,3.454,3.741c-0.084,11.495,0.114,22.994-0.136,34.484
		c-0.106,4.874-1.208,9.598-6.141,12.326c-5.529,3.059-11.225,3.216-16.708,0.473c-5.357-2.68-6.848-7.775-6.83-13.456
		c0.032-10.495,0.178-20.996-0.083-31.485c-0.099-3.953,0.597-6.323,5.092-6.459c3.515-0.105,2.739-2.94,2.838-5.186
		c0.127-2.9-1.872-2.601-3.707-2.602c-6.497-0.004-12.996-0.062-19.492,0.033c-1.924,0.028-4.518-1-4.742,2.635
		c-0.19,3.079,0.368,5.412,3.927,5.443c3.49,0.031,3.997,1.939,3.925,4.858C317.656,37.669,317.759,43.669,317.759,49.666z
		 M405.56,132.898c-0.016-5.528-0.511-9.98-1.728-14.326c-3.44-12.28-13.31-21.249-24.671-22.475
		c-14.063-1.517-25.099,3.973-31.195,15.77c-4.51,8.729-5.152,18.088-3.876,27.67c2.995,22.494,26.118,34.931,45.327,24.075
		C401.603,156.726,405.127,144.983,405.56,132.898z M689.938,133.098c-0.135,2.219,0.322,5.83,1.152,9.413
		c3.505,15.147,14.776,24.663,29.536,24.906c14.445,0.237,25.863-8.837,29.851-23.808c2.005-7.53,1.993-15.128,0.397-22.73
		c-4.96-23.637-32.098-33.331-49.893-17.597C692.614,110.682,689.911,120.729,689.938,133.098z M828.134,69.104
		c3.498,0,7.027-0.298,10.485,0.072c4.787,0.512,3.395,5.35,5.03,8.089c1.324,2.217-0.428,2.702-2.194,3.192
		c-3.09,0.857-1.819,3.494-1.923,5.46c-0.141,2.649,1.951,2.155,3.534,2.166c4.83,0.032,9.663,0.096,14.49-0.032
		c1.733-0.046,4.344,1.08,4.459-2.296c0.085-2.492,0.57-5.164-3.217-5.469c-2.355-0.189-2.503-2.341-3.116-4.009
		c-6.587-17.906-13.397-35.735-19.611-53.771c-1.796-5.213-5.32-3.8-8.713-4.044c-3.301-0.238-5.737-0.045-7.177,4.097
		c-6.15,17.706-12.782,35.245-19.266,52.834c-0.906,2.459-1.555,4.921-5.032,5.397c-3.224,0.441-1.766,3.464-1.783,5.363
		c-0.024,2.619,2.254,1.889,3.757,1.912c4.996,0.075,9.994,0.08,14.99-0.003c1.488-0.024,3.768,0.764,3.767-1.896
		c0-2.09,1.37-5.139-2.093-5.758c-3.343-0.597-2.059-2.277-1.736-4.268c0.888-5.484,3.492-8.206,9.362-7.104
		C824.079,69.4,826.135,69.096,828.134,69.104z M865.556,147.096c3.327,0,6.658-0.09,9.982,0.02
		c5.472,0.182,3.701,5.409,5.474,8.164c1.48,2.303-0.384,3.009-2.253,3.581c-3.161,0.968-1.476,3.609-1.68,5.506
		c-0.232,2.158,1.505,2.167,3.069,2.164c5.324-0.012,10.648-0.014,15.973,0.001c1.757,0.006,3.597-0.021,3.344-2.465
		c-0.194-1.871,1.391-4.756-2.096-5.145c-2.959-0.329-3.609-2.475-4.412-4.667c-6.378-17.425-12.914-34.795-19.034-52.31
		c-1.417-4.055-3.373-5.324-7.502-5.147c-4.261,0.182-7.57-0.035-9.407,5.35c-5.939,17.404-12.579,34.569-18.928,51.834
		c-0.865,2.354-1.542,4.561-4.697,5.027c-3.35,0.495-1.646,3.433-1.852,5.31c-0.233,2.141,1.474,2.22,3.057,2.217
		c5.324-0.011,10.648,0.017,15.973-0.024c1.412-0.011,3.42,0.407,3.308-1.864c-0.102-2.029,1.648-4.979-1.854-5.799
		c-2.726-0.638-2.697-2.058-2.029-4.257c2.274-7.483,2.224-7.499,10.074-7.499C861.896,147.092,863.726,147.092,865.556,147.096z
		 M500.287,166.298c4.828,0,9.658,0.046,14.485-0.015c4.146-0.052,9.615,1.341,12.087-0.753c2.914-2.468,0.761-8.133,0.993-12.401
		c0.136-2.507,0.937-5.608-3.633-5.076c-3.089,0.36-7.069-1.118-6.376,4.54c0.41,3.348-1.135,4.657-4.646,4.477
		c-5.479-0.282-10.989-0.203-16.478-0.017c-2.85,0.097-3.797-0.883-3.688-3.707c0.187-4.821,0.229-9.664-0.012-14.48
		c-0.162-3.256,1.252-3.919,4.126-3.83c5.489,0.169,10.987,0.093,16.481,0.019c1.341-0.019,2.967,0.598,3.629-1.58
		c1.547-5.08-0.277-7.74-5.553-7.766c-1.166-0.006-2.338,0.078-3.496-0.02c-4.916-0.415-11.621,2.268-14.273-1.201
		c-2.445-3.198-0.732-9.576-0.851-14.554c-0.005-0.166,0.019-0.335-0.001-0.499c-0.34-2.686,0.974-3.461,3.492-3.388
		c4.658,0.134,9.35,0.349,13.977-0.056c4.174-0.365,6.333,0.883,6.117,5.207c-0.156,3.147,1.436,3.58,4.256,3.809
		c4.529,0.366,5.963-1.24,5.426-5.582c-0.324-2.624-0.246-5.337-0.012-7.98c0.294-3.326-0.641-4.655-4.312-4.606
		c-14.982,0.199-29.969,0.072-44.954,0.092c-1.903,0.002-4.16-0.597-4.119,2.701c0.033,2.666-0.049,5.245,3.571,5.203
		c3.695-0.043,4.253,1.991,4.229,5.137c-0.114,14.318-0.134,28.639,0.014,42.956c0.035,3.356-0.569,5.418-4.434,5.468
		c-3.633,0.046-3.416,2.739-3.346,5.343c0.088,3.286,2.484,2.518,4.321,2.531C484.969,166.324,492.629,166.292,500.287,166.298z
		 M659.999,88.083c4.832,0,9.67,0.141,14.495-0.042c4.256-0.161,9.693,1.896,12.44-0.973c2.518-2.628,0.609-7.954,0.712-12.087
		c0.057-2.247,1.106-5.412-3.243-4.998c-3.009,0.286-7.149-1.423-6.561,4.387c0.368,3.636-1.489,4.839-5.126,4.626
		c-5.313-0.311-10.663-0.202-15.99-0.03c-2.803,0.09-3.851-0.823-3.738-3.692c0.189-4.824,0.24-9.672-0.013-14.49
		c-0.17-3.23,1.146-3.935,4.062-3.836c5.492,0.188,11.006-0.157,16.49,0.122c3.988,0.203,3.664-2.181,3.678-4.779
		c0.013-2.642,0.23-4.911-3.737-4.689c-5.647,0.316-11.327,0.005-16.99,0.104c-2.555,0.045-3.567-0.884-3.47-3.505
		c0.161-4.326,0.137-8.666,0.012-12.994c-0.07-2.431,0.945-3.184,3.255-3.138c5.163,0.103,10.336,0.166,15.493-0.036
		c3.006-0.117,4.614,0.541,4.693,3.96c0.033,1.478-0.433,3.728,2.28,4.321c5.622,1.231,7.5-0.128,7.509-5.862
		c0.004-2.499-0.18-5.014,0.032-7.494c0.271-3.154-0.694-4.389-4.106-4.35c-14.994,0.171-29.991,0.057-44.987,0.115
		c-1.775,0.007-4.25-0.869-4.218,2.538c0.025,2.564-0.332,5.437,3.302,5.423c4.422-0.017,4.513,2.583,4.491,5.897
		c-0.091,13.996-0.104,27.993,0.047,41.988c0.038,3.506-0.418,5.788-4.703,5.681c-3.403-0.085-3.052,2.645-3.144,5.03
		c-0.125,3.242,2.072,2.797,4.041,2.799C644.67,88.088,652.334,88.083,659.999,88.083z M597.904,152.533
		c0.909,2.456-1.857,6.585,2.288,8.853c12.653,6.922,25.896,8.647,39.106,2.316c12.069-5.785,12.962-22.228,2.136-30.211
		c-4.051-2.987-8.616-4.936-13.408-6.413c-4.587-1.415-9.268-2.666-13.287-5.433c-3.925-2.702-5.136-7.722-2.484-11.35
		c4.372-5.983,10.749-4.903,16.89-4.263c5.029,0.525,7.741,3.319,7.77,8.449c0.015,2.695,1.103,3.681,3.922,3.688
		c6.171,0.018,6.171,0.186,6.176-6.213c0.001-1.997-0.068-3.997,0.019-5.99c0.079-1.824-0.452-3.197-2.1-4.162
		c-11.793-6.908-24.175-8.62-36.597-2.511c-12.642,6.217-13.299,22.813-1.619,30.625c4.314,2.886,9.191,4.572,14.142,6.061
		c3.807,1.145,7.645,2.271,11.009,4.503c3.396,2.253,4.707,5.508,4.196,9.462c-0.508,3.926-3.054,6.058-6.675,7.2
		c-4.972,1.57-9.852,0.702-14.728-0.429c-4.216-0.979-6.833-3.534-6.567-7.984c0.339-5.68-3.422-4.697-6.887-4.874
		c-4.84-0.246-2.917,3.254-3.279,5.483C597.794,150.151,597.904,151.001,597.904,152.533z M537.986,151.915
		c0.012,9.195-0.002,9.229,8.646,12.586c8.119,3.149,16.588,3.569,25.023,2.159c9.619-1.606,16.27-8.016,17.236-15.684
		c1.156-9.164-2.785-15.845-12.374-20.599c-2.662-1.319-5.509-2.291-8.319-3.281c-4.068-1.434-8.242-2.574-12.033-4.718
		c-3.518-1.989-5.486-4.917-4.858-9.004c0.629-4.092,3.534-6.391,7.321-7.293c2.895-0.689,5.91-0.677,8.936-0.283
		c7.273,0.945,8.17,1.599,9.511,8.859c0.425,2.297,1.162,3.428,3.774,3.504c6.242,0.185,6.238,0.334,6.243-6.056
		c0.001-2.166-0.062-4.334,0.015-6.498c0.059-1.665-0.646-2.773-1.924-3.795c-8.678-6.941-27.76-7.995-37.494-2.01
		c-11.998,7.377-12.09,22.908-0.188,30.415c4.261,2.688,8.924,4.384,13.734,5.774c3.828,1.106,7.655,2.312,10.982,4.589
		c4.738,3.243,5.847,10.26,1.883,13.877c-5.633,5.142-12.317,3.618-18.935,2.322c-5.244-1.028-6.731-4.573-7.127-9.253
		c-0.107-1.274,0.454-2.971-1.74-3.607c-5.586-1.621-8.315,0.252-8.315,5.995C537.984,150.582,537.984,151.249,537.986,151.915z
		 M233.292,96.918c-6.7,0-12.194,0.024-17.687-0.013c-1.96-0.013-3.688-0.044-3.521,2.768c0.138,2.315-0.431,5.13,3.022,5.099
		c4.285-0.038,4.684,2.285,4.649,5.763c-0.14,13.815-0.152,27.633,0.013,41.447c0.045,3.759-0.265,6.426-4.966,6.563
		c-3.53,0.104-2.556,3.099-2.676,5.284c-0.14,2.547,1.592,2.467,3.323,2.467c6.991,0.003,13.982-0.009,20.974,0.043
		c2.021,0.016,3.72-0.128,3.477-2.842c-0.179-1.998,0.826-4.753-2.573-4.816c-5.204-0.097-5.667-3.246-5.27-7.329
		c0.225-2.309,0.198-4.67,0.003-6.984c-0.253-3.001,0.832-4.178,3.925-4.097c4.485,0.117,8.992,0.019,13.469-0.291
		c11.124-0.769,19.629-8.697,20.487-18.884c0.994-11.793-4.938-20.098-16.502-23.22C246.381,95.971,239.192,97.452,233.292,96.918z
		 M438.995,96.915c-7.658,0-15.316-0.009-22.975,0.007c-1.949,0.004-4.096-0.481-4.078,2.772c0.015,2.746,0.125,5.176,3.659,5.143
		c3.94-0.037,4.41,2.164,4.373,5.486c-0.151,13.649-0.158,27.303-0.004,40.953c0.044,3.98,0.11,7.298-5.272,7.338
		c-3.16,0.023-2.634,2.655-2.726,4.799c-0.113,2.65,1.438,2.918,3.507,2.901c6.493-0.051,12.987,0.064,19.478-0.064
		c2-0.039,4.826,1.26,5.012-2.817c0.15-3.278-0.811-5.179-4.154-5.214c-3.157-0.032-3.875-1.629-3.771-4.448
		c0.168-4.489,0.169-8.993-0.001-13.481c-0.098-2.603,0.78-3.515,3.406-3.448c5.99,0.149,12.001-0.219,17.974,0.134
		c4.171,0.245,3.627-2.265,3.577-4.75c-0.051-2.508,0.946-5.455-3.627-5.19c-5.807,0.336-11.656-0.09-17.473,0.147
		c-3.178,0.129-4.023-1.03-3.868-4.021c0.224-4.317,0.258-8.667-0.007-12.979c-0.209-3.405,1.134-4.306,4.318-4.151
		c4.65,0.228,9.343,0.349,13.975-0.022c4.715-0.377,7.192,0.662,6.779,6.081c-0.361,4.729,3.636,2.474,5.813,2.863
		c2.319,0.415,4.245,0.119,4.03-3.205c-0.246-3.813-0.193-7.661-0.01-11.481c0.127-2.666-0.908-3.432-3.462-3.394
		C455.312,96.993,447.153,96.917,438.995,96.915z M463.663,18.704c-5.664,0-11.327,0-16.99,0c-14.866,0-14.783-0.004-13.97,14.93
		c0.15,2.747,1.203,3.661,3.608,3.209c2.177-0.409,5.87,1.826,5.782-2.974c-0.084-4.582,1.906-6.675,6.614-5.809
		c0.967,0.178,2.013,0.151,2.99,0.004c4.031-0.61,5.452,0.788,5.361,5.095c-0.286,13.486-0.197,26.984-0.046,40.475
		c0.043,3.886-0.023,6.817-5.229,6.735c-3.531-0.057-2.509,3.145-2.654,5.323c-0.173,2.613,1.659,2.392,3.343,2.392
		c6.83,0,13.659,0.014,20.488-0.007c1.935-0.006,4.139,0.516,4.099-2.75c-0.032-2.681,0.031-5.257-3.603-5.154
		c-3.684,0.104-4.307-1.834-4.272-5.03c0.135-12.658,0.062-25.318,0.056-37.978c-0.003-9.104-0.003-8.893,8.846-9.173
		c4.122-0.13,6.479,0.754,5.98,5.316c-0.312,2.854,1.003,3.411,3.715,3.698c5.09,0.541,6.889-1.177,6.172-6.234
		c-0.395-2.775-0.24-5.666-0.027-8.481c0.224-2.954-1.053-3.673-3.779-3.633C481.32,18.786,472.491,18.706,463.663,18.704z
		 M411.406,88.093c7.332,0,14.667-0.095,21.996,0.049c2.692,0.053,3.947-0.58,3.793-3.568c-0.222-4.321-0.093-8.663-0.04-12.995
		c0.024-2.013-0.13-3.971-2.812-3.402c-2.323,0.491-5.768-2.109-6.747,2.66c-0.541,2.634,1.057,6.396-1.813,7.715
		c-2.355,1.082-5.563,0.324-8.393,0.351c-2.5,0.024-5.017-0.182-7.495,0.051c-3.298,0.31-4.27-0.931-4.228-4.222
		c0.173-13.829,0.176-27.663,0.026-41.493c-0.042-3.916,0.141-6.78,5.265-6.686c3.708,0.069,2.99-3.111,3.056-5.538
		c0.079-2.88-1.922-2.576-3.758-2.576c-6.999-0.002-13.998,0.012-20.997-0.009c-2.101-0.006-4.028-0.096-3.982,2.978
		c0.04,2.635-0.121,5.359,3.457,5.312c4.123-0.056,4.335,2.257,4.307,5.479c-0.121,13.998-0.131,27.997,0.005,41.994
		c0.034,3.541-0.054,6.203-4.748,6.055c-3.542-0.112-2.848,2.846-2.976,5.119c-0.156,2.789,1.63,2.749,3.586,2.74
		C396.408,88.073,403.907,88.093,411.406,88.093z M930.797,166.296c3.662,0,7.334,0.165,10.984-0.041
		c4.904-0.275,11.737,2.285,14.197-1.12c2.48-3.434,0.775-9.892,0.897-15.024c0.012-0.498-0.021-0.998-0.042-1.496
		c-0.049-1.188-0.73-1.606-1.851-1.884c-5.376-1.336-7.744,0.241-7.827,5.794c-0.048,3.258-0.856,4.827-4.522,4.546
		c-4.303-0.329-8.666-0.303-12.974-0.005c-3.651,0.252-4.465-1.237-4.427-4.593c0.152-13.481,0.171-26.968-0.001-40.448
		c-0.055-4.23-0.005-7.552,5.681-7.349c3.376,0.121,2.903-2.757,3.003-5.098c0.121-2.883-1.743-2.667-3.616-2.664
		c-7.158,0.011-14.315-0.005-21.474,0.011c-1.778,0.004-3.808-0.438-3.733,2.527c0.063,2.523-0.422,5.402,3.327,5.339
		c4.333-0.073,4.575,2.434,4.545,5.815c-0.122,13.814-0.179,27.634,0.031,41.446c0.06,3.891-0.5,6.343-5.047,6.469
		c-3.482,0.096-2.754,2.924-2.841,5.184c-0.111,2.908,1.893,2.586,3.716,2.587C916.148,166.298,923.473,166.295,930.797,166.296z
		 M669.363,166.297c3.166,0,6.335,0.072,9.498-0.027c1.795-0.058,4.223,0.856,4.252-2.523c0.021-2.623,0.192-5.348-3.37-5.364
		c-3.958-0.02-3.917-2.358-3.898-5.27c0.088-14.331,0.119-28.664-0.02-42.995c-0.032-3.315,0.337-5.401,4.408-5.354
		c3.54,0.041,2.702-2.953,2.872-5.188c0.222-2.907-1.702-2.666-3.577-2.662c-6.666,0.013-13.332,0.025-19.998-0.008
		c-2.096-0.01-4.038-0.159-3.867,2.956c0.132,2.394-0.233,4.996,3.223,4.973c3.694-0.025,4.193,1.975,4.165,5.11
		c-0.129,14.331-0.158,28.664,0.011,42.994c0.04,3.354-0.495,5.334-4.337,5.498c-3.307,0.141-3.021,2.779-3.041,5.183
		c-0.028,3.278,2.296,2.629,4.181,2.663C663.029,166.338,666.196,166.297,669.363,166.297z M514.279,18.705
		c-3.327,0-6.656-0.056-9.982,0.021c-1.843,0.043-4.227-0.737-4.309,2.542c-0.065,2.597-0.283,5.36,3.314,5.389
		c4.268,0.033,4.586,2.461,4.554,5.867c-0.129,13.809-0.149,27.619,0.012,41.427c0.044,3.793-0.204,6.431-5.069,6.365
		c-3.457-0.047-2.722,3.018-2.797,5.266c-0.098,2.929,2.02,2.489,3.794,2.495c6.655,0.021,13.311,0.042,19.966-0.014
		c1.824-0.016,4.137,0.77,4.172-2.596c0.031-2.938-0.068-5.467-3.919-5.336c-3.399,0.115-4.03-1.696-4.005-4.71
		c0.122-14.475,0.166-28.951-0.025-43.424c-0.047-3.523,0.838-5.291,4.551-5.345c3.614-0.051,3.385-2.688,3.393-5.299
		c0.008-3.315-2.3-2.601-4.165-2.635C520.603,18.661,517.441,18.703,514.279,18.705z M778.321,18.705
		c-3.332,0-6.666-0.06-9.996,0.023c-1.828,0.045-4.232-0.783-4.229,2.572c0.002,2.567-0.363,5.366,3.318,5.342
		c4.323-0.028,4.568,2.483,4.539,5.863c-0.12,13.995-0.119,27.992,0.002,41.987c0.029,3.405-0.219,5.908-4.603,5.728
		c-3.371-0.139-3.175,2.415-3.292,4.874c-0.147,3.087,1.671,3.023,3.817,3.008c6.664-0.048,13.329,0,19.994-0.028
		c1.904-0.008,4.149,0.595,4.061-2.727c-0.07-2.629,0.159-5.308-3.527-5.169c-4.158,0.156-4.335-2.284-4.311-5.482
		c0.108-14.162,0.128-28.326-0.014-42.488c-0.032-3.305,0.393-5.501,4.367-5.519c3.519-0.016,3.484-2.563,3.483-5.246
		c-0.001-3.266-2.193-2.707-4.113-2.729C784.653,18.68,781.487,18.705,778.321,18.705z M194.385,93.286c-0.012,0-0.023,0-0.035,0
		c0-22.968,0.073-45.937-0.083-68.903c-0.022-3.243,0.848-8.735-3.023-8.801c-3.021-0.051-2.997,5.588-3.001,8.977
		c-0.06,45.604-0.025,91.206-0.072,136.81c-0.002,2.387,0.505,4.626,1.147,6.851c0.296,1.026,0.395,2.589,1.865,2.643
		c1.68,0.063,2.213-1.609,2.389-2.753c0.477-3.106,0.772-6.271,0.781-9.413C194.415,136.893,194.385,115.09,194.385,93.286z"/>
	<path fill-rule="evenodd" clip-rule="evenodd" fill="#FE5959" d="M92.007,170.889c-23.492,0.006-46.984,0.007-70.476,0.003
		c-1.332,0-2.7,0.143-3.988-0.108c-2.809-0.547-3.439-2.56-3.496-5.197c-0.057-2.662,1.335-3.021,3.423-2.93
		c2.691,0.118,3.338-1.442,3.26-3.832c-0.12-3.661-0.141-7.333-0.021-10.994c0.111-3.4,0.279-6.385-4.734-5.865
		c-2.618,0.271-1.819-2.295-1.827-3.752c-0.061-12.162-0.032-24.325-0.031-36.487c0-17.66,0.032-35.321-0.032-52.981
		c-0.01-2.867-0.223-5.46,3.96-4.871c2.369,0.334,2.661-1.385,2.655-3.214c-0.011-3.665-0.048-7.331,0.018-10.996
		c0.061-3.392,0.611-6.917-4.742-6.469c-2.32,0.193-1.737-1.911-1.85-3.301c-0.185-2.266,0.709-3.987,2.927-4.598
		c1.247-0.343,2.645-0.174,3.975-0.174c47.483-0.006,94.967-0.007,142.451,0.001c1.33,0,2.737-0.17,3.973,0.195
		c2.601,0.77,3.379,2.855,3.448,5.425c0.08,2.958-1.982,2.568-3.756,2.547c-2.671-0.034-3.361,1.363-3.293,3.796
		c0.125,4.495,0.127,8.998-0.001,13.493c-0.068,2.401,0.411,3.926,3.24,3.545c2.839-0.382,3.237,1.292,3.234,3.634
		c-0.042,30.156-0.025,60.313-0.031,90.469c0,1.822,0.281,4.092-2.537,3.787c-3.703-0.4-4.02,1.6-3.911,4.483
		c0.157,4.159,0.14,8.332,0.004,12.493c-0.08,2.473,0.692,3.861,3.336,3.71c1.931-0.11,3.227,0.363,3.121,2.702
		c-0.111,2.467-0.428,4.778-3.335,5.368c-1.284,0.26-2.655,0.109-3.987,0.109C139.325,170.885,115.666,170.883,92.007,170.889z
		 M81.08,69.725c-2.512,0.247-2.059,2.182-2.062,3.76c-0.025,13.446-0.02,26.894-0.01,40.34c0.001,1.452-0.357,3.144,1.533,3.773
		c1.581,0.527,2.42-0.784,3.325-1.685c6.476-6.437,12.879-12.946,19.402-19.335c2.07-2.028,2.361-3.65,0.144-5.814
		C96.877,84.39,90.474,77.88,84.017,71.426C83.192,70.601,82.359,69.778,81.08,69.725z M151.139,34.076
		c-0.004-10.226-0.004-10.226-9.969-10.232c-9.811-0.008-9.811-0.008-9.798,9.985c0.011,9.815,0.011,9.815,10.077,9.827
		C151.143,43.668,151.143,43.668,151.139,34.076z M76.167,23.838c-10.183,0-10.183,0-10.183,10.074c0,9.741,0,9.741,9.539,9.741
		c10.349,0,10.349,0,10.349-10.118C85.872,23.838,85.872,23.838,76.167,23.838z M43.406,23.838c-10.052,0-10.052,0-10.052,10.237
		c0,0.166,0,0.332,0,0.498c0,9.08,0,9.08,9.316,9.08c10.493,0,10.493,0,10.493-10.296C53.162,23.838,53.162,23.838,43.406,23.838z
		 M43.74,143.354c-10.387,0-10.387,0-10.387,10.498c0,9.315,0,9.315,9.481,9.315c10.328,0,10.328,0,10.328-10.442
		C53.162,143.354,53.162,143.354,43.74,143.354z M109.062,23.848C98.991,23.84,98.991,23.84,99,33.513
		c0.009,10.159,0.009,10.159,10.243,10.141c9.629-0.018,9.629-0.018,9.613-9.807C118.84,23.855,118.84,23.855,109.062,23.848z
		 M118.853,153.558c0.001-10.179,0.001-10.179-10.184-10.176c-9.67,0.002-9.67,0.002-9.67,9.664c0,10.104,0,10.104,10.157,10.104
		C118.851,163.15,118.851,163.15,118.853,153.558z M75.793,163.15c10.208,0,10.208,0,10.208-9.566c0-9.963,0-9.963-9.817-9.963
		c-10.038,0-10.038,0-10.038,9.833C66.147,163.15,66.147,163.15,75.793,163.15z M151.143,153.507c0-9.882,0-9.882-9.865-9.882
		c-9.673,0-9.673,0-9.636,9.672c0.038,9.85,0.038,9.85,9.923,9.85C151.143,163.146,151.143,163.146,151.143,153.507z"/>
	<path fill-rule="evenodd" clip-rule="evenodd" fill="#FE5B5B" d="M553.207,34.324c0,5.462-0.271,10.389,0.06,15.275
		c0.584,8.651,0.774,17.305,0.557,25.958c-0.078,3.124,0.719,4.754,4.062,4.552c3.707-0.225,4.243,1.978,4.204,5.11
		c-0.045,3.645-2.502,2.836-4.509,2.852c-6.494,0.053-12.99,0.021-19.485,0.019c-1.985-0.001-4.13,0.41-3.974-2.834
		c0.115-2.391-0.25-5.096,3.15-5.009c4.211,0.107,4.775-2.038,4.735-5.606c-0.161-14.154-0.149-28.312-0.005-42.467
		c0.034-3.312-0.391-5.455-4.366-5.493c-3.891-0.036-3.558-2.997-3.499-5.716c0.07-3.346,2.554-2.457,4.341-2.462
		c5.993-0.017,11.993,0.321,17.977,0.114c3.239-0.112,4.638,1.112,5.758,4.038c5.103,13.324,10.442,26.559,15.718,39.817
		c0.727,1.826,1.563,3.608,2.36,5.438c2.115-0.877,2.128-2.788,2.693-4.236c5.315-13.595,10.635-27.191,15.699-40.881
		c1.184-3.2,2.785-4.334,6.171-4.174c5.982,0.283,11.987,0.064,17.983,0.09c1.929,0.008,4.182-0.508,4.071,2.751
		c-0.079,2.34,0.36,5.032-3.017,5.072c-4.752,0.058-4.949,2.859-4.907,6.573c0.155,13.821,0.145,27.646,0.005,41.468
		c-0.035,3.473,0.343,5.822,4.657,5.657c3.338-0.128,3.166,2.428,3.285,4.893c0.15,3.124-1.718,2.993-3.832,2.981
		c-6.662-0.036-13.324,0.014-19.985-0.024c-1.878-0.011-4.224,0.656-4.151-2.654c0.055-2.555-0.331-5.382,3.442-5.245
		c3.798,0.138,4.692-1.578,4.642-5.146c-0.189-13.477-0.076-26.957-0.076-40.557c-2.495,0.431-2.326,2.728-2.914,4.191
		c-5.871,14.624-11.697,29.269-17.274,44.005c-1.271,3.356-2.985,4.432-6.534,4.479c-3.689,0.049-5.118-1.413-6.381-4.632
		c-5.758-14.673-11.789-29.237-17.754-43.828C555.529,37.264,555.27,35.554,553.207,34.324z"/>
	<path fill-rule="evenodd" clip-rule="evenodd" fill="#FE5B5B" d="M284.692,34.755c-2.289,1.04-2.372,2.81-2.936,4.232
		c-5.686,14.352-11.41,28.689-16.988,43.083c-1.226,3.163-2.397,5.234-6.563,5.127c-3.845-0.099-5.355-1.451-6.684-4.837
		c-6.298-16.051-12.891-31.985-19.647-48.622c-1.5,2.351-0.967,4.317-0.941,6.105c0.171,11.822,0.563,23.642,0.603,35.463
		c0.011,3.347,0.896,4.982,4.409,4.825c3.784-0.169,4.054,2.272,3.997,5.281c-0.071,3.78-2.758,2.604-4.625,2.636
		c-6.662,0.108-13.327-0.023-19.989,0.075c-2.271,0.033-3.431-0.573-3.244-3.07c0.158-2.113-0.476-4.916,2.736-4.787
		c4.959,0.198,5.09-2.607,5.052-6.352c-0.141-13.992-0.11-27.987-0.014-41.98c0.021-3.053-0.302-5.181-4.147-5.151
		c-3.285,0.026-3.669-2.285-3.676-5.122c-0.008-3.61,2.356-2.938,4.416-2.95c5.997-0.034,12.002,0.166,17.989-0.087
		c3.025-0.128,4.391,0.999,5.442,3.723c5.257,13.621,10.677,27.18,16.1,40.736c0.663,1.657,0.958,3.561,2.606,4.929
		c2.255-3.048,3.059-6.657,4.378-10c4.69-11.885,9.306-23.801,13.755-35.777c0.97-2.611,2.263-3.666,5.061-3.589
		c6.159,0.172,12.326,0.048,18.49,0.058c1.981,0.003,4.154-0.392,4.044,2.82c-0.081,2.366,0.307,5.112-3.045,5.109
		c-4.436-0.004-4.451,2.609-4.426,5.895c0.103,14.159,0.1,28.32-0.001,42.48c-0.021,2.991,0.125,5.27,4.017,5.138
		c3.781-0.128,3.378,2.669,3.458,5.231c0.104,3.312-2.187,2.693-4.086,2.702c-6.497,0.03-12.994-0.002-19.491,0.02
		c-2.043,0.007-4.099,0.297-3.872-2.893c0.165-2.314-0.425-5.162,3.09-4.996c4.501,0.212,5.05-2.102,4.995-5.856
		c-0.171-11.491-0.02-22.988-0.019-34.482C284.937,38.303,284.791,36.734,284.692,34.755z"/>
	<path fill-rule="evenodd" clip-rule="evenodd" fill="#FD5959" d="M777.102,117.152c0,12.827,0.071,25.11-0.049,37.391
		c-0.031,3.136,1.773,3.274,4.092,3.66c2.027,0.337,4.866-0.195,5.012,3.441c0.126,3.151-0.316,4.931-4.182,4.748
		c-6.479-0.304-12.982-0.082-19.476-0.106c-1.791-0.006-3.907,0.365-3.771-2.53c0.096-2.041-0.794-4.946,2.39-5.086
		c5.1-0.224,4.983-3.276,4.941-7.062c-0.157-13.984-0.136-27.972-0.005-41.956c0.028-3.001-0.569-4.806-3.949-4.789
		c-3.789,0.019-3.35-2.733-3.424-5.28c-0.099-3.349,2.262-2.61,4.122-2.653c16.069-0.377,16.052-0.358,24.49,13.173
		c6.506,10.431,13.021,20.856,19.643,31.212c0.903,1.413,1.279,3.511,4.03,3.987c0-12.726,0.062-25.287-0.045-37.847
		c-0.025-3-2.729-2.369-4.549-2.542c-2.831-0.271-4.666-1.026-4.46-4.5c0.146-2.459,0.67-3.597,3.389-3.541
		c7.156,0.144,14.317,0.076,21.477,0.03c1.896-0.013,3.317,0.257,3.109,2.655c-0.176,2.031,0.749,5.048-2.431,5.026
		c-5.893-0.039-5.43,3.651-5.408,7.63c0.094,16.482-0.067,32.967,0.141,49.447c0.048,3.746-1.058,4.527-4.718,4.817
		c-5.556,0.44-8.62-1.605-11.475-6.266c-8.154-13.313-16.852-26.293-25.354-39.391C779.854,119.607,779.388,118.094,777.102,117.152
		z"/>
	<path fill-rule="evenodd" clip-rule="evenodd" fill="#FD5B5B" d="M296.888,96.91c6.25,0.49,13.778-0.92,21.171,1.079
		c7.477,2.021,13.096,6.273,14.653,14.024c1.715,8.536-0.095,16.468-7.98,21.447c-3.3,2.084-3.184,3.865-1.747,6.789
		c2.121,4.315,4.003,8.75,5.914,13.166c1.067,2.468,1.937,4.693,5.331,5.071c3.432,0.381,2.132,3.542,2.251,5.67
		c0.14,2.503-1.753,2.374-3.455,2.374c-0.333,0-0.666-0.004-1,0.002c-10.942,0.182-10.94,0.181-15.06-10.106
		c-1.295-3.235-2.587-6.472-3.908-9.696c-3.811-9.306-3.812-9.184-13.935-8.797c-2.751,0.105-3.356,1.113-3.272,3.562
		c0.143,4.16,0.13,8.331,0.003,12.492c-0.075,2.469,0.217,4.184,3.326,4.192c4.072,0.011,4.097,2.927,3.917,5.947
		c-0.225,3.767-3.096,2.287-4.886,2.339c-6.159,0.176-12.326,0.06-18.489,0.076c-2.207,0.005-4.35,0.312-4.355-3.114
		c-0.005-2.816,0.291-5.121,3.672-5.127c3.631-0.007,4.163-1.862,4.128-5.046c-0.156-14.325-0.139-28.653-0.004-42.979
		c0.031-3.273-0.305-5.499-4.353-5.461c-3.672,0.034-3.361-2.773-3.362-5.353c-0.001-3.374,2.433-2.503,4.246-2.526
		C285.026,96.865,290.358,96.91,296.888,96.91z M304.742,128.367c2.643-0.14,5.318-0.063,7.919-0.469
		c4.109-0.643,6.961-2.971,7.904-7.181c1.004-4.487,0.548-8.986-3.247-11.779c-6.078-4.472-13.646-3.765-20.136-2.271
		c-3.374,0.776-0.795,7.074-1.407,10.821c-0.105,0.646-0.015,1.324-0.015,1.986C295.762,128.239,295.762,128.239,304.742,128.367z"
		/>
	<path fill-rule="evenodd" clip-rule="evenodd" fill="#FE5A5A" d="M715.466,18.704c3.166,0.003,6.337,0.12,9.497-0.017
		c17.858-0.773,29.379,12.296,31.431,26.155c2.18,14.725,0.284,28.326-12.819,37.978c-4.537,3.342-9.742,5.079-15.342,5.178
		c-9.495,0.166-18.995,0.045-28.492,0.111c-2.215,0.015-3.947-0.093-3.791-3.09c0.127-2.432-0.131-4.9,3.324-4.899
		c4.072,0.001,4.691-2.293,4.648-5.842c-0.171-13.995-0.126-27.994-0.026-41.99c0.022-3.168-0.113-5.575-4.287-5.535
		c-3.276,0.031-3.733-2.298-3.676-5.154c0.071-3.592,2.501-2.858,4.536-2.88C705.468,18.667,710.467,18.702,715.466,18.704z
		 M716.1,52.998c0,3.666,0,7.331,0,10.996c0,3.666-0.052,7.332,0.022,10.996c0.03,1.531-0.578,3.291,1.907,3.922
		c9.376,2.38,19.116-2.036,23.614-10.731c1.962-3.793,2.863-7.888,3.018-11.995c0.569-15.171-4.146-29.617-24.625-28.181
		c-2.986,0.209-4.087,0.91-4.001,4.003C716.229,39,716.097,46.001,716.1,52.998z"/>
	<path fill-rule="evenodd" clip-rule="evenodd" fill="#FE5A5A" d="M317.759,49.666c0-5.997-0.103-11.997,0.044-17.991
		c0.072-2.919-0.435-4.827-3.925-4.858c-3.559-0.031-4.117-2.364-3.927-5.443c0.224-3.635,2.818-2.606,4.742-2.635
		c6.496-0.095,12.995-0.037,19.492-0.033c1.835,0.001,3.833-0.299,3.707,2.602c-0.099,2.245,0.677,5.08-2.838,5.186
		c-4.495,0.136-5.19,2.506-5.092,6.459c0.261,10.489,0.114,20.99,0.083,31.485c-0.018,5.681,1.473,10.776,6.83,13.456
		c5.483,2.743,11.179,2.586,16.708-0.473c4.934-2.729,6.035-7.452,6.141-12.326c0.25-11.49,0.052-22.989,0.136-34.484
		c0.019-2.517-0.924-3.696-3.454-3.741c-3.592-0.063-4.79-1.934-4.462-5.475c0.37-3.994,3.249-2.582,5.229-2.634
		c6.327-0.164,12.66-0.085,18.991-0.08c1.807,0.001,3.886-0.365,3.728,2.565c-0.119,2.2,0.791,5.179-2.757,5.237
		c-5.063,0.083-5.165,3.1-5.101,6.958c0.172,10.492,0.131,20.991,0.02,31.486c-0.147,13.948-9.806,23.636-23.783,24.172
		c-8.499,0.325-16.631-0.361-23.282-6.584c-4.47-4.182-7.062-9.182-7.115-15.357c-0.05-5.83-0.011-11.66-0.011-17.491
		C317.827,49.666,317.793,49.666,317.759,49.666z"/>
	<path fill-rule="evenodd" clip-rule="evenodd" fill="#FE5C5C" d="M405.56,132.898c-0.433,12.085-3.958,23.827-16.144,30.714
		c-19.209,10.855-42.332-1.581-45.327-24.075c-1.276-9.582-0.634-18.941,3.876-27.67c6.096-11.797,17.133-17.286,31.195-15.77
		c11.362,1.226,21.231,10.194,24.671,22.475C405.049,122.918,405.544,127.37,405.56,132.898z M393.017,130.302
		c0.203-5.035-0.72-10.916-3.753-16.263c-6.339-11.175-22.053-11.584-29.044-0.825c-5.937,9.138-5.539,28.711,0.768,37.686
		c6.584,9.37,21.252,9.156,27.566-0.437C392.377,144.655,393.054,138.083,393.017,130.302z"/>
	<path fill-rule="evenodd" clip-rule="evenodd" fill="#FE5D5D" d="M689.938,133.098c-0.027-12.368,2.676-22.416,11.044-29.815
		c17.795-15.734,44.933-6.04,49.893,17.597c1.596,7.603,1.607,15.2-0.397,22.73c-3.987,14.971-15.405,24.045-29.851,23.808
		c-14.76-0.243-26.031-9.759-29.536-24.906C690.261,138.928,689.804,135.316,689.938,133.098z M739.339,132.254
		c-0.116-5.649-0.232-11.298-2.747-16.573c-3.445-7.229-8.534-10.214-16.744-10.002c-7.669,0.197-12.48,4.322-14.972,11.122
		c-3.484,9.513-3.399,19.246-0.244,28.843c2.621,7.976,8.543,12.186,16.398,12.127c7.814-0.058,13.636-4.432,16.414-12.231
		C738.979,141.231,739.246,136.762,739.339,132.254z"/>
	<path fill-rule="evenodd" clip-rule="evenodd" fill="#FE5C5C" d="M828.134,69.1c-1.999-0.004-4.055,0.301-5.986-0.062
		c-5.87-1.102-8.475,1.62-9.362,7.104c-0.322,1.99-1.606,3.671,1.736,4.268c3.463,0.619,2.093,3.668,2.093,5.758
		c0.001,2.659-2.278,1.871-3.767,1.896c-4.996,0.083-9.994,0.078-14.99,0.003c-1.503-0.023-3.781,0.707-3.757-1.912
		c0.018-1.899-1.44-4.922,1.783-5.363c3.478-0.477,4.126-2.938,5.032-5.397c6.483-17.589,13.115-35.128,19.266-52.834
		c1.439-4.142,3.876-4.335,7.177-4.097c3.393,0.244,6.917-1.169,8.713,4.044c6.214,18.035,13.024,35.864,19.611,53.771
		c0.613,1.668,0.761,3.819,3.116,4.009c3.787,0.305,3.302,2.977,3.217,5.469c-0.115,3.376-2.726,2.25-4.459,2.296
		c-4.827,0.128-9.66,0.064-14.49,0.032c-1.583-0.011-3.675,0.483-3.534-2.166c0.104-1.966-1.167-4.603,1.923-5.46
		c1.767-0.49,3.519-0.976,2.194-3.192c-1.636-2.739-0.243-7.577-5.03-8.089C835.161,68.806,831.632,69.104,828.134,69.1z
		 M828.641,33.892c-0.377,0.001-0.753,0.002-1.13,0.003c-2.703,7.762-5.419,15.519-8.101,23.288
		c-0.712,2.063,0.717,2.172,2.146,2.175c4.327,0.009,8.654,0.002,12.981,0.002c1.492,0,2.833-0.276,2.166-2.229
		C834.054,49.372,831.334,41.636,828.641,33.892z"/>
	<path fill-rule="evenodd" clip-rule="evenodd" fill="#FE5B5B" d="M865.556,147.094c-1.83-0.002-3.66-0.002-5.491-0.002
		c-7.851,0-7.8,0.016-10.074,7.499c-0.668,2.199-0.696,3.619,2.029,4.257c3.503,0.819,1.753,3.77,1.854,5.799
		c0.112,2.271-1.896,1.854-3.308,1.864c-5.324,0.041-10.648,0.014-15.973,0.024c-1.583,0.003-3.29-0.076-3.057-2.217
		c0.205-1.877-1.498-4.814,1.852-5.31c3.155-0.467,3.832-2.673,4.697-5.027c6.349-17.265,12.988-34.43,18.928-51.834
		c1.837-5.385,5.146-5.168,9.407-5.35c4.129-0.177,6.085,1.093,7.502,5.147c6.12,17.515,12.656,34.885,19.034,52.31
		c0.803,2.192,1.453,4.338,4.412,4.667c3.486,0.389,1.901,3.273,2.096,5.145c0.253,2.444-1.587,2.471-3.344,2.465
		c-5.324-0.015-10.648-0.013-15.973-0.001c-1.564,0.003-3.302-0.006-3.069-2.164c0.204-1.896-1.481-4.538,1.68-5.506
		c1.869-0.572,3.733-1.278,2.253-3.581c-1.772-2.755-0.002-7.982-5.474-8.164C872.214,147.006,868.883,147.096,865.556,147.094z
		 M875.021,137.871c-3.186-9.179-6.175-17.79-9.557-27.533c-3.403,9.812-6.381,18.396-9.55,27.533c4.95,0,9.25,0,13.549,0
		C871.096,137.871,872.729,137.871,875.021,137.871z"/>
	<path fill-rule="evenodd" clip-rule="evenodd" fill="#FD5858" d="M500.287,166.295c-7.658-0.003-15.318,0.029-22.976-0.026
		c-1.837-0.014-4.232,0.755-4.321-2.531c-0.07-2.604-0.288-5.297,3.346-5.343c3.865-0.05,4.469-2.111,4.434-5.468
		c-0.148-14.317-0.128-28.638-0.014-42.956c0.025-3.146-0.534-5.18-4.229-5.137c-3.62,0.042-3.539-2.537-3.571-5.203
		c-0.041-3.298,2.216-2.699,4.119-2.701c14.985-0.02,29.971,0.107,44.954-0.092c3.671-0.049,4.605,1.28,4.312,4.606
		c-0.234,2.644-0.313,5.356,0.012,7.98c0.537,4.342-0.896,5.948-5.426,5.582c-2.82-0.229-4.412-0.661-4.256-3.809
		c0.216-4.324-1.943-5.572-6.117-5.207c-4.627,0.404-9.318,0.189-13.977,0.056c-2.519-0.073-3.832,0.702-3.492,3.388
		c0.02,0.164-0.004,0.333,0.001,0.499c0.118,4.978-1.595,11.355,0.851,14.554c2.652,3.469,9.357,0.786,14.273,1.201
		c1.158,0.098,2.33,0.014,3.496,0.02c5.275,0.025,7.1,2.686,5.553,7.766c-0.662,2.178-2.288,1.562-3.629,1.58
		c-5.494,0.074-10.992,0.15-16.481-0.019c-2.874-0.089-4.288,0.574-4.126,3.83c0.24,4.816,0.198,9.659,0.012,14.48
		c-0.109,2.824,0.838,3.804,3.688,3.707c5.488-0.187,10.998-0.266,16.478,0.017c3.511,0.181,5.056-1.129,4.646-4.477
		c-0.693-5.658,3.287-4.18,6.376-4.54c4.569-0.532,3.769,2.569,3.633,5.076c-0.232,4.269,1.921,9.934-0.993,12.401
		c-2.472,2.094-7.941,0.701-12.087,0.753C509.945,166.344,505.115,166.298,500.287,166.295z"/>
	<path fill-rule="evenodd" clip-rule="evenodd" fill="#FD5858" d="M659.999,88.083c-7.665,0-15.329,0.005-22.994-0.004
		c-1.969-0.002-4.166,0.443-4.041-2.799c0.092-2.386-0.26-5.115,3.144-5.03c4.285,0.107,4.741-2.175,4.703-5.681
		c-0.15-13.995-0.138-27.992-0.047-41.988c0.021-3.314-0.069-5.914-4.491-5.897c-3.634,0.014-3.276-2.858-3.302-5.423
		c-0.032-3.407,2.442-2.531,4.218-2.538c14.996-0.059,29.993,0.056,44.987-0.115c3.412-0.039,4.377,1.195,4.106,4.35
		c-0.212,2.48-0.028,4.995-0.032,7.494c-0.009,5.734-1.887,7.094-7.509,5.862c-2.713-0.594-2.247-2.844-2.28-4.321
		c-0.079-3.419-1.688-4.077-4.693-3.96c-5.157,0.202-10.33,0.139-15.493,0.036c-2.31-0.046-3.325,0.707-3.255,3.138
		c0.125,4.328,0.149,8.668-0.012,12.994c-0.098,2.621,0.915,3.55,3.47,3.505c5.663-0.1,11.343,0.212,16.99-0.104
		c3.968-0.222,3.75,2.048,3.737,4.689c-0.014,2.599,0.311,4.982-3.678,4.779c-5.484-0.279-10.998,0.065-16.49-0.122
		c-2.916-0.099-4.231,0.605-4.062,3.836c0.253,4.818,0.202,9.666,0.013,14.49c-0.112,2.869,0.936,3.782,3.738,3.692
		c5.327-0.172,10.677-0.28,15.99,0.03c3.637,0.213,5.494-0.99,5.126-4.626c-0.589-5.81,3.552-4.101,6.561-4.387
		c4.35-0.414,3.3,2.751,3.243,4.998c-0.103,4.133,1.806,9.459-0.712,12.087c-2.747,2.868-8.185,0.812-12.44,0.973
		C669.669,88.224,664.831,88.083,659.999,88.083z"/>
	<path fill-rule="evenodd" clip-rule="evenodd" fill="#FE5C5C" d="M597.904,152.533c0-1.532-0.11-2.382,0.021-3.192
		c0.362-2.229-1.561-5.729,3.279-5.483c3.465,0.177,7.226-0.806,6.887,4.874c-0.266,4.45,2.352,7.006,6.567,7.984
		c4.876,1.131,9.756,1.999,14.728,0.429c3.621-1.143,6.167-3.274,6.675-7.2c0.511-3.954-0.8-7.209-4.196-9.462
		c-3.364-2.232-7.202-3.358-11.009-4.503c-4.95-1.488-9.827-3.175-14.142-6.061c-11.68-7.813-11.022-24.408,1.619-30.625
		c12.422-6.109,24.804-4.397,36.597,2.511c1.647,0.965,2.179,2.338,2.1,4.162c-0.087,1.993-0.018,3.993-0.019,5.99
		c-0.005,6.398-0.005,6.23-6.176,6.213c-2.819-0.007-3.907-0.992-3.922-3.688c-0.028-5.13-2.74-7.924-7.77-8.449
		c-6.141-0.641-12.518-1.721-16.89,4.263c-2.651,3.628-1.44,8.647,2.484,11.35c4.02,2.767,8.7,4.018,13.287,5.433
		c4.792,1.478,9.357,3.426,13.408,6.413c10.826,7.983,9.934,24.426-2.136,30.211c-13.21,6.331-26.453,4.605-39.106-2.316
		C596.047,159.118,598.813,154.989,597.904,152.533z"/>
	<path fill-rule="evenodd" clip-rule="evenodd" fill="#FD5B5B" d="M537.985,151.915c-0.001-0.666-0.001-1.333-0.001-1.999
		c0-5.743,2.729-7.616,8.315-5.995c2.194,0.637,1.633,2.333,1.74,3.607c0.396,4.68,1.883,8.225,7.127,9.253
		c6.617,1.296,13.302,2.819,18.935-2.322c3.964-3.617,2.855-10.634-1.883-13.877c-3.327-2.277-7.154-3.482-10.982-4.589
		c-4.811-1.391-9.474-3.087-13.734-5.774c-11.902-7.507-11.811-23.038,0.188-30.415c9.734-5.985,28.816-4.932,37.494,2.01
		c1.277,1.021,1.982,2.13,1.924,3.795c-0.076,2.164-0.014,4.332-0.015,6.498c-0.005,6.39-0.001,6.24-6.243,6.056
		c-2.612-0.076-3.35-1.207-3.774-3.504c-1.341-7.261-2.237-7.914-9.511-8.859c-3.025-0.394-6.041-0.406-8.936,0.283
		c-3.787,0.902-6.692,3.201-7.321,7.293c-0.628,4.087,1.341,7.015,4.858,9.004c3.791,2.144,7.965,3.284,12.033,4.718
		c2.811,0.99,5.657,1.962,8.319,3.281c9.589,4.754,13.53,11.435,12.374,20.599c-0.967,7.668-7.617,14.077-17.236,15.684
		c-8.436,1.41-16.904,0.99-25.023-2.159C537.984,161.145,537.998,161.11,537.985,151.915z"/>
	<path fill-rule="evenodd" clip-rule="evenodd" fill="#FE5959" d="M233.292,96.918c5.9,0.534,13.089-0.947,20.146,0.958
		c11.565,3.122,17.496,11.427,16.502,23.22c-0.858,10.187-9.364,18.115-20.487,18.884c-4.477,0.31-8.984,0.408-13.469,0.291
		c-3.093-0.081-4.178,1.096-3.925,4.097c0.195,2.314,0.222,4.676-0.003,6.984c-0.397,4.083,0.065,7.232,5.27,7.329
		c3.398,0.063,2.394,2.818,2.573,4.816c0.243,2.714-1.457,2.857-3.477,2.842c-6.991-0.052-13.982-0.04-20.974-0.043
		c-1.731,0-3.463,0.08-3.323-2.467c0.121-2.186-0.854-5.181,2.676-5.284c4.701-0.138,5.012-2.805,4.966-6.563
		c-0.165-13.814-0.153-27.632-0.013-41.447c0.035-3.478-0.364-5.801-4.649-5.763c-3.453,0.031-2.884-2.783-3.022-5.099
		c-0.167-2.812,1.562-2.78,3.521-2.768C221.098,96.942,226.592,96.918,233.292,96.918z M232.085,119.067
		c0.567,3.079-1.965,9.056,0.916,10.847c4.206,2.616,10.212,1.33,15.442,0.381c4.976-0.903,7.742-3.933,8.766-8.859
		c1.037-4.993,0.05-9.51-4.021-12.478c-5.946-4.333-13.271-3.759-19.664-2.287c-3.44,0.791-0.714,6.505-1.425,9.915
		C232,117.063,232.085,117.579,232.085,119.067z"/>
	<path fill-rule="evenodd" clip-rule="evenodd" fill="#FE5A5A" d="M438.995,96.916c8.158,0.001,16.316,0.077,24.472-0.044
		c2.554-0.038,3.59,0.728,3.462,3.394c-0.183,3.82-0.236,7.668,0.01,11.481c0.215,3.324-1.71,3.62-4.03,3.205
		c-2.177-0.39-6.174,1.866-5.813-2.863c0.413-5.419-2.064-6.458-6.779-6.081c-4.632,0.371-9.325,0.25-13.975,0.022
		c-3.184-0.154-4.527,0.746-4.318,4.151c0.265,4.312,0.231,8.661,0.007,12.979c-0.155,2.991,0.69,4.15,3.868,4.021
		c5.817-0.237,11.666,0.188,17.473-0.147c4.573-0.265,3.577,2.683,3.627,5.19c0.05,2.485,0.595,4.995-3.577,4.75
		c-5.973-0.353-11.984,0.016-17.974-0.134c-2.625-0.066-3.504,0.846-3.406,3.448c0.17,4.488,0.169,8.992,0.001,13.481
		c-0.105,2.819,0.613,4.416,3.771,4.448c3.344,0.035,4.304,1.936,4.154,5.214c-0.187,4.077-3.013,2.778-5.012,2.817
		c-6.49,0.129-12.985,0.014-19.478,0.064c-2.07,0.017-3.621-0.251-3.507-2.901c0.092-2.144-0.435-4.775,2.726-4.799
		c5.382-0.04,5.317-3.357,5.272-7.338c-0.153-13.65-0.147-27.304,0.004-40.953c0.037-3.322-0.433-5.523-4.373-5.486
		c-3.534,0.033-3.644-2.396-3.659-5.143c-0.018-3.254,2.129-2.769,4.078-2.772C423.679,96.906,431.337,96.915,438.995,96.916z"/>
	<path fill-rule="evenodd" clip-rule="evenodd" fill="#FE5959" d="M463.663,18.705c8.829,0.001,17.658,0.081,26.484-0.047
		c2.727-0.04,4.003,0.679,3.779,3.633c-0.213,2.815-0.367,5.706,0.027,8.481c0.717,5.058-1.082,6.775-6.172,6.234
		c-2.712-0.287-4.026-0.845-3.715-3.698c0.498-4.563-1.858-5.446-5.98-5.316c-8.85,0.28-8.85,0.069-8.846,9.173
		c0.005,12.659,0.079,25.319-0.056,37.978c-0.034,3.196,0.589,5.134,4.272,5.03c3.633-0.103,3.57,2.474,3.603,5.154
		c0.04,3.266-2.164,2.744-4.099,2.75c-6.83,0.021-13.659,0.007-20.488,0.007c-1.685,0-3.517,0.222-3.343-2.392
		c0.145-2.179-0.877-5.38,2.654-5.323c5.206,0.082,5.273-2.85,5.229-6.735c-0.15-13.49-0.239-26.988,0.046-40.475
		c0.091-4.307-1.33-5.705-5.361-5.095c-0.977,0.147-2.023,0.174-2.99-0.004c-4.708-0.866-6.698,1.227-6.614,5.809
		c0.088,4.8-3.605,2.564-5.782,2.974c-2.405,0.452-3.458-0.462-3.608-3.209c-0.813-14.934-0.896-14.93,13.97-14.93
		C452.336,18.704,457.999,18.704,463.663,18.705z"/>
	<path fill-rule="evenodd" clip-rule="evenodd" fill="#FD5B5B" d="M411.406,88.093c-7.5,0-14.999-0.02-22.498,0.013
		c-1.957,0.009-3.743,0.049-3.586-2.74c0.128-2.273-0.566-5.231,2.976-5.119c4.694,0.148,4.782-2.514,4.748-6.055
		c-0.136-13.997-0.126-27.996-0.005-41.994c0.028-3.223-0.185-5.535-4.307-5.479c-3.578,0.048-3.417-2.677-3.457-5.312
		c-0.046-3.073,1.882-2.983,3.982-2.978c6.999,0.021,13.998,0.007,20.997,0.009c1.836,0,3.837-0.304,3.758,2.576
		c-0.066,2.427,0.652,5.607-3.056,5.538c-5.124-0.095-5.307,2.77-5.265,6.686c0.15,13.83,0.146,27.664-0.026,41.493
		c-0.042,3.291,0.93,4.531,4.228,4.222c2.478-0.232,4.995-0.026,7.495-0.051c2.83-0.026,6.038,0.731,8.393-0.351
		c2.871-1.318,1.273-5.081,1.813-7.715c0.979-4.77,4.424-2.169,6.747-2.66c2.682-0.568,2.836,1.39,2.812,3.402
		c-0.053,4.332-0.182,8.674,0.04,12.995c0.154,2.988-1.101,3.621-3.793,3.568C426.073,87.998,418.738,88.093,411.406,88.093z"/>
	<path fill-rule="evenodd" clip-rule="evenodd" fill="#FE5959" d="M930.797,166.295c-7.324,0-14.648,0.003-21.973-0.003
		c-1.823-0.001-3.827,0.321-3.716-2.587c0.087-2.26-0.642-5.088,2.841-5.184c4.547-0.126,5.106-2.578,5.047-6.469
		c-0.21-13.813-0.153-27.632-0.031-41.446c0.03-3.382-0.212-5.889-4.545-5.815c-3.749,0.063-3.264-2.815-3.327-5.339
		c-0.074-2.966,1.955-2.523,3.733-2.527c7.158-0.016,14.315,0,21.474-0.011c1.873-0.003,3.737-0.219,3.616,2.664
		c-0.1,2.341,0.373,5.219-3.003,5.098c-5.686-0.203-5.735,3.118-5.681,7.349c0.172,13.48,0.153,26.967,0.001,40.448
		c-0.038,3.355,0.775,4.845,4.427,4.593c4.308-0.298,8.671-0.324,12.974,0.005c3.666,0.281,4.475-1.288,4.522-4.546
		c0.083-5.553,2.451-7.13,7.827-5.794c1.12,0.277,1.802,0.695,1.851,1.884c0.021,0.498,0.054,0.998,0.042,1.496
		c-0.122,5.133,1.583,11.591-0.897,15.024c-2.46,3.405-9.293,0.845-14.197,1.12C938.131,166.461,934.459,166.296,930.797,166.295z"
		/>
	<path fill-rule="evenodd" clip-rule="evenodd" fill="#FE5A5A" d="M669.363,166.297c-3.167,0-6.334,0.041-9.499-0.016
		c-1.885-0.034-4.209,0.615-4.181-2.663c0.021-2.403-0.266-5.042,3.041-5.183c3.842-0.164,4.377-2.145,4.337-5.498
		c-0.169-14.33-0.14-28.663-0.011-42.994c0.028-3.136-0.471-5.136-4.165-5.11c-3.456,0.023-3.091-2.579-3.223-4.973
		c-0.171-3.115,1.771-2.966,3.867-2.956c6.666,0.033,13.332,0.021,19.998,0.008c1.875-0.004,3.799-0.245,3.577,2.662
		c-0.17,2.235,0.668,5.229-2.872,5.188c-4.071-0.047-4.44,2.039-4.408,5.354c0.139,14.331,0.107,28.664,0.02,42.995
		c-0.019,2.911-0.06,5.25,3.898,5.27c3.563,0.017,3.392,2.741,3.37,5.364c-0.029,3.38-2.457,2.466-4.252,2.523
		C675.698,166.369,672.529,166.297,669.363,166.297z"/>
	<path fill-rule="evenodd" clip-rule="evenodd" fill="#FE5959" d="M514.279,18.704c3.162-0.001,6.323-0.043,9.483,0.016
		c1.865,0.034,4.173-0.681,4.165,2.635c-0.008,2.611,0.222,5.248-3.393,5.299c-3.713,0.054-4.598,1.821-4.551,5.345
		c0.191,14.473,0.147,28.949,0.025,43.424c-0.025,3.014,0.605,4.825,4.005,4.71c3.851-0.131,3.95,2.397,3.919,5.336
		c-0.035,3.365-2.348,2.58-4.172,2.596c-6.655,0.056-13.311,0.034-19.966,0.014c-1.774-0.006-3.892,0.434-3.794-2.495
		c0.075-2.248-0.66-5.313,2.797-5.266c4.865,0.065,5.113-2.572,5.069-6.365c-0.161-13.808-0.141-27.618-0.012-41.427
		c0.032-3.406-0.286-5.834-4.554-5.867c-3.598-0.028-3.38-2.792-3.314-5.389c0.082-3.279,2.466-2.499,4.309-2.542
		C507.623,18.649,510.952,18.705,514.279,18.704z"/>
	<path fill-rule="evenodd" clip-rule="evenodd" fill="#FE5959" d="M778.321,18.705c3.166,0,6.332-0.025,9.497,0.01
		c1.92,0.021,4.112-0.537,4.113,2.729c0.001,2.683,0.035,5.23-3.483,5.246c-3.975,0.018-4.399,2.214-4.367,5.519
		c0.142,14.162,0.122,28.326,0.014,42.488c-0.024,3.198,0.152,5.639,4.311,5.482c3.687-0.139,3.457,2.54,3.527,5.169
		c0.089,3.321-2.156,2.719-4.061,2.727c-6.665,0.028-13.33-0.02-19.994,0.028c-2.146,0.016-3.965,0.079-3.817-3.008
		c0.117-2.459-0.079-5.013,3.292-4.874c4.384,0.181,4.632-2.322,4.603-5.728c-0.121-13.995-0.122-27.992-0.002-41.987
		c0.029-3.38-0.216-5.892-4.539-5.863c-3.682,0.024-3.316-2.774-3.318-5.342c-0.003-3.355,2.401-2.527,4.229-2.572
		C771.655,18.646,774.989,18.705,778.321,18.705z"/>
	<path fill-rule="evenodd" clip-rule="evenodd" fill="#FE6363" d="M194.385,93.286c0,21.804,0.029,43.606-0.033,65.409
		c-0.009,3.143-0.304,6.307-0.781,9.413c-0.176,1.144-0.709,2.815-2.389,2.753c-1.47-0.054-1.569-1.616-1.865-2.643
		c-0.642-2.225-1.149-4.464-1.147-6.851c0.046-45.604,0.012-91.206,0.072-136.81c0.004-3.389-0.019-9.027,3.001-8.977
		c3.871,0.065,3.001,5.558,3.023,8.801c0.157,22.967,0.083,45.936,0.083,68.903C194.362,93.286,194.374,93.286,194.385,93.286z"/>
</g>
</svg>
